<mxfile host="www.draw.io" modified="2019-12-04T03:40:04.646Z" agent="Mozilla/5.0 (Macintosh; Intel Mac OS X 10_14_6) AppleWebKit/537.36 (KHTML, like Gecko) Chrome/78.0.3904.108 Safari/537.36" etag="USBVpWQE3iD66-Eer23I" version="12.3.6" type="github" pages="1">
  <diagram id="wH5oIil5O3f5OFuHpAPj" name="第 1 页">
    <mxGraphModel dx="893" dy="591" grid="1" gridSize="10" guides="1" tooltips="1" connect="1" arrows="1" fold="1" page="1" pageScale="1" pageWidth="827" pageHeight="1169" math="0" shadow="0">
      <root>
        <mxCell id="0"/>
        <mxCell id="1" parent="0"/>
        <mxCell id="3A5Cxgbc8CVoEQmnolI1-1" value="HDFS分布式文件系统" style="rounded=1;whiteSpace=wrap;html=1;fillColor=#fff2cc;strokeColor=#d6b656;" vertex="1" parent="1">
          <mxGeometry x="171.5" y="494" width="120" height="60" as="geometry"/>
        </mxCell>
        <mxCell id="3A5Cxgbc8CVoEQmnolI1-2" value="MySQL" style="rounded=1;whiteSpace=wrap;html=1;fillColor=#f8cecc;strokeColor=#b85450;" vertex="1" parent="1">
          <mxGeometry x="341" y="494" width="120" height="60" as="geometry"/>
        </mxCell>
        <mxCell id="3A5Cxgbc8CVoEQmnolI1-4" value="" style="endArrow=none;dashed=1;html=1;" edge="1" parent="1">
          <mxGeometry width="50" height="50" relative="1" as="geometry">
            <mxPoint x="120" y="470" as="sourcePoint"/>
            <mxPoint x="640" y="470" as="targetPoint"/>
            <Array as="points">
              <mxPoint x="400" y="470"/>
            </Array>
          </mxGeometry>
        </mxCell>
        <mxCell id="3A5Cxgbc8CVoEQmnolI1-5" value="数据存储" style="text;html=1;strokeColor=none;fillColor=none;align=center;verticalAlign=middle;whiteSpace=wrap;rounded=0;" vertex="1" parent="1">
          <mxGeometry x="50" y="514" width="60" height="20" as="geometry"/>
        </mxCell>
        <mxCell id="3A5Cxgbc8CVoEQmnolI1-6" value="日志" style="rounded=1;whiteSpace=wrap;html=1;fillColor=#dae8fc;strokeColor=#6c8ebf;" vertex="1" parent="1">
          <mxGeometry x="500" y="494" width="120" height="60" as="geometry"/>
        </mxCell>
        <mxCell id="3A5Cxgbc8CVoEQmnolI1-7" value="计算" style="text;html=1;strokeColor=none;fillColor=none;align=center;verticalAlign=middle;whiteSpace=wrap;rounded=0;" vertex="1" parent="1">
          <mxGeometry x="50" y="340" width="60" height="20" as="geometry"/>
        </mxCell>
        <mxCell id="3A5Cxgbc8CVoEQmnolI1-8" value="应用" style="text;html=1;strokeColor=none;fillColor=none;align=center;verticalAlign=middle;whiteSpace=wrap;rounded=0;" vertex="1" parent="1">
          <mxGeometry x="50" y="200" width="60" height="20" as="geometry"/>
        </mxCell>
        <mxCell id="3A5Cxgbc8CVoEQmnolI1-9" value="安全" style="text;html=1;strokeColor=none;fillColor=none;align=center;verticalAlign=middle;whiteSpace=wrap;rounded=0;" vertex="1" parent="1">
          <mxGeometry x="50" y="80" width="60" height="20" as="geometry"/>
        </mxCell>
      </root>
    </mxGraphModel>
  </diagram>
</mxfile>
